<svg xmlns="http://www.w3.org/2000/svg" id="Layer_1" data-name="Layer 1" viewBox="0 0 400 310"><defs><style>.cls-1{fill:#0086ff;}.cls-1,.cls-2,.cls-3,.cls-4,.cls-5,.cls-6,.cls-7{stroke:#000;stroke-linecap:round;stroke-linejoin:round;stroke-width:2px;}.cls-2{fill:none;}.cls-4{fill:#fff;}.cls-5{fill:#ede73b;}.cls-6{fill:#dd7800;}.cls-7{fill:#e0e0e0;}</style></defs><path d="M395,143.19c-7.56,0-11.54-3.91-14.73-7.05-2.87-2.83-5.14-5.06-9.89-5.06s-7,2.23-9.89,5.06c-3.2,3.14-7.17,7.05-14.73,7.05s-11.54-3.91-14.73-7.05c-2.87-2.83-5.14-5.06-9.89-5.06s-7,2.23-9.89,5.06c-3.19,3.14-7.16,7.05-14.73,7.05s-11.53-3.91-14.73-7.05c-2.87-2.83-5.14-5.06-9.88-5.06a3.56,3.56,0,0,1,0-7.12c7.56,0,11.53,3.91,14.73,7,2.87,2.82,5.14,5.06,9.88,5.06s7-2.24,9.89-5.06c3.19-3.14,7.17-7,14.73-7s11.54,3.91,14.73,7c2.87,2.82,5.14,5.06,9.89,5.06s7-2.24,9.89-5.06c3.19-3.14,7.17-7,14.73-7s11.54,3.91,14.73,7c2.87,2.82,5.14,5.06,9.89,5.06a3.56,3.56,0,0,1,0,7.12Z"></path><path d="M395,164c-7.56,0-11.54-3.91-14.73-7-2.87-2.83-5.14-5.06-9.89-5.06s-7,2.23-9.89,5.06c-3.2,3.14-7.17,7-14.73,7s-11.54-3.91-14.73-7c-2.87-2.83-5.14-5.06-9.89-5.06s-7,2.23-9.89,5.06c-3.19,3.14-7.16,7-14.73,7s-11.53-3.91-14.73-7c-2.87-2.83-5.14-5.06-9.88-5.06a3.56,3.56,0,0,1,0-7.12c7.56,0,11.53,3.91,14.73,7.05,2.87,2.82,5.14,5.06,9.88,5.06s7-2.24,9.89-5.06c3.19-3.14,7.17-7.05,14.73-7.05s11.54,3.91,14.73,7.05c2.87,2.83,5.14,5.06,9.89,5.06s7-2.24,9.89-5.06c3.19-3.14,7.17-7.05,14.73-7.05s11.54,3.91,14.73,7.05c2.87,2.82,5.14,5.06,9.89,5.06a3.56,3.56,0,0,1,0,7.12Z"></path><path d="M395,184.89c-7.56,0-11.54-3.91-14.73-7-2.87-2.82-5.14-5.06-9.89-5.06s-7,2.24-9.89,5.06c-3.2,3.14-7.17,7-14.73,7s-11.54-3.91-14.73-7c-2.87-2.82-5.14-5.06-9.89-5.06s-7,2.24-9.89,5.06c-3.19,3.14-7.16,7-14.73,7s-11.53-3.91-14.73-7c-2.87-2.83-5.14-5.06-9.88-5.06a3.56,3.56,0,0,1,0-7.12c7.56,0,11.53,3.91,14.73,7.05,2.87,2.83,5.14,5.06,9.88,5.06s7-2.23,9.89-5.06c3.19-3.14,7.17-7.05,14.73-7.05s11.54,3.91,14.73,7.05c2.87,2.83,5.14,5.06,9.89,5.06s7-2.23,9.89-5.06c3.19-3.14,7.17-7.05,14.73-7.05s11.54,3.91,14.73,7.05c2.87,2.83,5.14,5.06,9.89,5.06a3.56,3.56,0,0,1,0,7.12Z"></path><path class="cls-1" d="M4.67,37.8H185.59c-.25-2.46-.25-5.17-.25-7.88,0-12.8,2.47-20.18,5.42-26.83H9.84c-3,6.65-5.42,14-5.42,26.83A77.85,77.85,0,0,0,4.67,37.8Z"></path><path class="cls-2" d="M4.42,184.75c0-38.64,14-38.64,14-77.53,0-38.65-14-38.65-14-77.54,0-12.8,2.46-20.19,5.42-26.83H190.76c-2.95,6.64-5.42,14-5.42,26.83,0,38.64,14,38.64,14,77.54,0,38.64-14,38.64-14,77.53Z"></path><circle class="cls-2" cx="52.18" cy="69.06" r="8.37"></circle><circle class="cls-2" cx="43.81" cy="151.77" r="8.37"></circle><circle class="cls-3" cx="47.99" cy="108.45" r="8.37"></circle><line class="cls-2" x1="84.18" y1="69.06" x2="171.07" y2="69.06"></line><line class="cls-2" x1="76.05" y1="108.45" x2="163.19" y2="108.45"></line><line class="cls-2" x1="78.27" y1="148.08" x2="165.41" y2="148.08"></line><path class="cls-4" d="M316.29,310c0-41-14-41-14-82.26,0-41,14-41,14-82.27,0-13.58-2.46-21.41-5.41-28.46H130c3,7,5.42,14.88,5.42,28.46,0,41-14,41-14,82.27,0,41,14,41,14,82.26Z"></path><path class="cls-5" d="M316.05,152H135.12c.25-2.46.25-5.17.25-7.87,0-12.8-2.46-20.19-5.42-26.83H310.88c2.95,6.64,5.41,14,5.41,26.83C316.29,146.79,316.05,149.5,316.05,152Z"></path><circle class="cls-2" cx="165.89" cy="183.22" r="8.37"></circle><circle class="cls-2" cx="157.77" cy="265.93" r="8.37"></circle><circle class="cls-3" cx="161.95" cy="222.61" r="8.37"></circle><line class="cls-2" x1="197.89" y1="183.22" x2="285.03" y2="183.22"></line><line class="cls-2" x1="189.77" y1="222.61" x2="276.91" y2="222.61"></line><line class="cls-2" x1="192.23" y1="261.99" x2="279.37" y2="261.99"></line><path class="cls-6" d="M62.9,191a30.38,30.38,0,0,0-30.38,30.38A30.38,30.38,0,0,0,2.12,191a30.38,30.38,0,0,0,30.4-30.38A30.38,30.38,0,0,0,62.9,191Z"></path><circle class="cls-7" cx="231.4" cy="95.21" r="68.7"></circle><path class="cls-5" d="M232.23,128.63a6.23,6.23,0,0,1-.74,0,8,8,0,0,1-5.62-3.09L193.29,83.29A8,8,0,0,1,206,73.46l27.3,35.38,85.17-75.29a8,8,0,0,1,10.7,12l-91.61,81A8,8,0,0,1,232.23,128.63Z"></path></svg>