<svg xmlns="http://www.w3.org/2000/svg" xmlns:xlink="http://www.w3.org/1999/xlink" id="Layer_1" data-name="Layer 1" viewBox="0 0 350 67.39"><defs><style>.cls-1{fill:url(#linear-gradient);}.cls-2{fill:url(#linear-gradient-2);}.cls-3{fill:url(#linear-gradient-3);}.cls-4{fill:url(#linear-gradient-4);}.cls-5{fill:url(#linear-gradient-5);}.cls-6{fill:url(#linear-gradient-6);}.cls-7{fill:url(#linear-gradient-7);}.cls-8{fill:url(#linear-gradient-8);}.cls-9{fill:url(#linear-gradient-9);}.cls-10{fill:url(#linear-gradient-10);}.cls-11{fill:url(#linear-gradient-11);}.cls-12{fill:url(#linear-gradient-12);}.cls-13{fill:url(#linear-gradient-15);}</style><linearGradient id="linear-gradient" y1="82.47" x2="349.99" y2="82.47" gradientTransform="matrix(1, 0, 0, -1, 0, 101.79)" gradientUnits="userSpaceOnUse"><stop offset="0" stop-color="#9000fe"></stop><stop offset="1" stop-color="#00eebe"></stop></linearGradient><linearGradient id="linear-gradient-2" x1="0.01" y1="54.21" x2="350" y2="54.21" xlink:href="#linear-gradient"></linearGradient><linearGradient id="linear-gradient-3" x1="0.01" y1="76.23" x2="350" y2="76.23" xlink:href="#linear-gradient"></linearGradient><linearGradient id="linear-gradient-4" x1="0.01" y1="63.67" x2="350" y2="63.67" xlink:href="#linear-gradient"></linearGradient><linearGradient id="linear-gradient-5" x1="0.01" y1="67.96" x2="350" y2="67.96" xlink:href="#linear-gradient"></linearGradient><linearGradient id="linear-gradient-6" x1="0.01" y1="37.94" x2="350" y2="37.94" xlink:href="#linear-gradient"></linearGradient><linearGradient id="linear-gradient-7" x1="0.01" y1="68.05" x2="350" y2="68.05" xlink:href="#linear-gradient"></linearGradient><linearGradient id="linear-gradient-8" x1="0.01" y1="61.34" x2="350" y2="61.34" xlink:href="#linear-gradient"></linearGradient><linearGradient id="linear-gradient-9" x1="0.01" y1="68.36" x2="350" y2="68.36" xlink:href="#linear-gradient"></linearGradient><linearGradient id="linear-gradient-10" x1="0.01" y1="89.25" x2="350" y2="89.25" xlink:href="#linear-gradient"></linearGradient><linearGradient id="linear-gradient-11" x1="0.01" y1="61.33" x2="350" y2="61.33" xlink:href="#linear-gradient"></linearGradient><linearGradient id="linear-gradient-12" x1="0.01" y1="68.59" x2="350" y2="68.59" xlink:href="#linear-gradient"></linearGradient><linearGradient id="linear-gradient-15" x1="0.01" y1="61.21" x2="350" y2="61.21" xlink:href="#linear-gradient"></linearGradient></defs><path class="cls-1" d="M15,32.5l1,0c3.44.12,6.11-3.5,6.14-3.53l.05-.08.05-.06,1.35-1.36a18.65,18.65,0,0,1,.07-6.41h-.17a2.68,2.68,0,0,1-.42-.05l-4,4a2.07,2.07,0,0,1,0,.5,2.15,2.15,0,1,1-2.14-2.15h0a2.24,2.24,0,0,1,.51.07l3.91-3.88a1.91,1.91,0,0,1-.08-.63,2.14,2.14,0,0,1,3.63-1.53c0-.05.05-.1.07-.14A11.68,11.68,0,0,0,20.36,1.44,11.41,11.41,0,0,0,17,.25C16.43.14,15.84.08,15.25,0h-.87c-.77.13-1.55.22-2.31.41A11.23,11.23,0,0,0,4.74,5.84a32.92,32.92,0,0,0-4,11.24C.51,18.28.4,19.5.28,20.72l3-3a2.14,2.14,0,0,1,1.48-2.64,2,2,0,0,1,.6-.08,2.15,2.15,0,0,1,0,4.29,2.3,2.3,0,0,1-.45-.05L0,24.14v1.11a3.45,3.45,0,0,1,.1.56c0,1.56.18,3.1.37,4.62L12.73,18.29a2.26,2.26,0,0,1-.09-.58,2.15,2.15,0,1,1,2.15,2.15h0a2.3,2.3,0,0,1-.45-.05L.91,33.14a51.77,51.77,0,0,0,1.32,5.5l1.32-1.33C8.64,32.19,11.45,32.33,15,32.5Z"></path><path class="cls-2" d="M27.32,50.81V50.7c0-.06,0-6,0-11.34v-1h0a31.88,31.88,0,0,1-3.18-8.15l-.22.22c-.47.62-3.6,4.51-8,4.39l-1.07,0c-3.36-.17-5.38-.26-9.76,4.16L3,41Q4,43.67,5.17,46.24l4.7-4.66a2.07,2.07,0,0,1-.15-.77,2.15,2.15,0,1,1,2.2,2.09h-.28L6.19,48.31q1.11,2.16,2.4,4.21L19.17,42a1.87,1.87,0,0,1-.08-.57,2.15,2.15,0,1,1,2.14,2.14h0a3.27,3.27,0,0,1-.44,0L9.85,54.41a43.69,43.69,0,0,0,3.23,4.07l7-6.94A2.18,2.18,0,0,1,20,51a2.15,2.15,0,1,1,2.14,2.14h0a2.2,2.2,0,0,1-.44,0l-7.08,7,.57.56A26.66,26.66,0,0,0,20.94,65v-.3a9.15,9.15,0,0,1,1.95-5.86v0s1.89-1.88,3.44-3.58C27.37,54.08,27.39,51.59,27.32,50.81Z"></path><path class="cls-3" d="M17,25.53a.09.09,0,0,0,.08.08h.05L17,25.5S17,25.52,17,25.53Z"></path><path class="cls-4" d="M35,38.17H35l-.1-.11a.09.09,0,0,0,0,.11Z"></path><path class="cls-5" d="M98.82,5.7A11.17,11.17,0,0,0,88.32.28,11.58,11.58,0,0,0,77.4,10.36a11,11,0,0,0,1.25,6.94A11.85,11.85,0,0,1,80,22.67a29.63,29.63,0,0,1-2.66,12.54c-.75,1.73-1.73,3.36-2.61,5-.08.15-.2.28-.35.5-.13-.23-.23-.39-.31-.55a103.73,103.73,0,0,0-5.19-9.34,25.93,25.93,0,0,0-7.37-7.78,17.36,17.36,0,0,0-10.67-3,18.28,18.28,0,0,0-10.78,4.26A24.24,24.24,0,0,0,38.22,26a2.15,2.15,0,0,1-1.11,2.82,2.26,2.26,0,0,1-.85.17,1.63,1.63,0,0,1-.58-.08c-.34.45-.67.91-1,1.37a86,86,0,0,0-5.15,8.87h0V50.65c0,.56.24,4.08-1.54,6-1.48,1.6-3.26,3.4-3.48,3.62a7.08,7.08,0,0,0-1.36,4.39V66c.54.21,1.1.41,1.67.57a16.65,16.65,0,0,0,15.74-3.19,26,26,0,0,0,6.2-7.3c1.53-2.6,2.94-5.26,4.39-7.89l.35-.63.31.57a101.94,101.94,0,0,0,5.06,9.08,24.72,24.72,0,0,0,6.9,7.25,16.66,16.66,0,0,0,8.15,2.83,1.91,1.91,0,0,1,.41.11h1.54c.7-.1,1.39-.18,2.09-.29a20.43,20.43,0,0,0,8.3-3.39,34.63,34.63,0,0,0,9-9.27,57.71,57.71,0,0,0,9.21-22.28,44.74,44.74,0,0,0,.77-7c0-.26.06-.51.11-.76V22.25c-.07-.86-.14-1.71-.22-2.57A31.18,31.18,0,0,0,98.82,5.7ZM35,36a2.21,2.21,0,0,1,.51,0l3.91-3.88a2.23,2.23,0,0,1-.09-.63,2.15,2.15,0,1,1,2.15,2.15h0a1.93,1.93,0,0,1-.42,0l-4,4a2.07,2.07,0,0,1,.06.5A2.15,2.15,0,1,1,35,35.9h0Zm0,10a2,2,0,0,1,.69.12l7.86-7.79a2.15,2.15,0,1,1,2.77,1.24,1.89,1.89,0,0,1-.78.14H45.3l-8.22,8.16a1.5,1.5,0,0,1,0,.3A2.15,2.15,0,1,1,34.92,46h0Zm13.3,1.17a2.18,2.18,0,0,1-.44,0L31.52,63.29a2,2,0,0,1,.08.54,2.15,2.15,0,1,1-2.15-2.14h0a2.61,2.61,0,0,1,.48.05L46.2,45.59a2.24,2.24,0,0,1-.08-.57,2.15,2.15,0,1,1,2.14,2.14h0Z"></path><path class="cls-6" d="M29.46,63.78a.07.07,0,0,0-.07.07.08.08,0,0,0,.07.08.09.09,0,0,0,.08-.08A.08.08,0,0,0,29.46,63.78Z"></path><path class="cls-7" d="M174.81,7.07c-4.23,0-4.77,3.57-5.55,7.13l-6.74,30.05L154.9,16.13c-1.4-4.95-2-8.93-7.62-9.06s-6.53,4.24-7.79,9.06L132,44.25l-6.76-30c-1.1-3.91-1.09-7-5.55-7.13-5.11.22-5.58,4.92-4.1,9.34l8.56,34.65c1.06,6.18,4.22,12,11.17,8,2.56-2.35,2.29-3.88,3.58-7.78l8.42-30.86L155.6,51.3c1.34,4,1,5.43,3.58,7.79,1.76,1.61,6.07,1.59,7.74,0,2.47-2.39,2.27-4.13,3.43-8l8.56-34.66C180.36,11.84,179.92,7.34,174.81,7.07Z"></path><path class="cls-8" d="M185.64,54.19a20,20,0,0,0,17.92,5.35c4.42-.78,11.91-4.23,9-9.62-3.93-5.68-7.8,2-13.14,1.18a10,10,0,0,1-9.62-6.66c2.21-.46,27,1.19,28-1.16,3.39-4.77-1-13-4.66-16.6C194.31,9.31,168,35.55,185.64,54.19Zm3.82-17.08c2.36-9.55,18-9.57,20.38,0Z"></path><path class="cls-9" d="M230.54,24.26c-.38-2.51,1.07-14.19-1.25-16-2.64-2.91-7.81-.63-7.59,3.28V40.49c-.26,17,21.32,26,33.09,13.71,7.49-7.15,7.53-20.31,0-27.44A19.37,19.37,0,0,0,230.54,24.26Zm20.3,20.32c-5.72,12.79-24.57,4.74-19.44-8.21,5.78-12.67,24.5-4.76,19.46,8.21Z"></path><path class="cls-10" d="M264.77,16c4.47,4.46,11.39-2.36,6.85-6.83S260.3,11.47,264.77,16Z"></path><path class="cls-11" d="M271.38,22.88c-2.55-2.83-7.67-.68-7.6,3.09V55c0,5.73,8.82,5.77,8.83,0C272.14,53.15,273.87,23.27,271.38,22.88Z"></path><path class="cls-12" d="M287.15,46.35V11.4c-.06-5.7-8.87-5.87-8.84,0,.4,3.65-1.06,38,1.15,40.45,3.24,9.08,21.42,10.84,15.46.1C292.34,49.32,287.16,51.87,287.15,46.35Z"></path><path class="cls-10" d="M300,16c4.47,4.46,11.39-2.36,6.86-6.83S295.58,11.47,300,16Z"></path><path class="cls-11" d="M306.65,22.88c-2.54-2.83-7.66-.68-7.58,3.09V55c0,5.73,8.82,5.77,8.82,0C307.42,53.15,309.14,23.27,306.65,22.88Z"></path><path class="cls-13" d="M350,40.49A19.06,19.06,0,0,0,348.46,33c-6.5-15.74-29.16-15.65-35.75,0C305,50.06,326.1,68,341.27,56.14c.83,4.11,6.87,4.34,8.33.53C350.29,56.2,349.85,41.48,350,40.49Zm-9.67,4.09c-5.69,12.8-24.58,4.73-19.44-8.21C326.67,23.71,345.37,31.57,340.3,44.58Z"></path></svg>