<svg xmlns="http://www.w3.org/2000/svg" xmlns:xlink="http://www.w3.org/1999/xlink" id="Layer_1" x="0px" y="0px" viewBox="0 0 478 67.4" style="enable-background:new 0 0 478 67.4;" xml:space="preserve"><style type="text/css">	.st0{fill:url(#SVGID_1_);}	.st1{fill:url(#SVGID_00000072281055666195811700000006545394662310769576_);}	.st2{fill:url(#SVGID_00000172419823559959722530000009467861574131271836_);}	.st3{fill:url(#SVGID_00000124854854669521208080000001413154939560365954_);}	.st4{fill:url(#SVGID_00000104665387544193606980000006460827954726453913_);}	.st5{fill:url(#SVGID_00000002374098123690418740000004421046563776596405_);}	.st6{fill:url(#SVGID_00000081614372216798275630000009261266531691029432_);}	.st7{fill:url(#SVGID_00000092442806033338742900000013847024055983613593_);}	.st8{fill:url(#SVGID_00000033342138518234075740000011757908263865456530_);}	.st9{fill:url(#SVGID_00000130622420584000465070000008171529100129934220_);}	.st10{fill:url(#SVGID_00000053518158562564135320000009717542490896007842_);}	.st11{fill:url(#SVGID_00000157276742933307788220000003091263615079283630_);}	.st12{fill:url(#SVGID_00000081614425363879375870000006069117688010100623_);}	.st13{fill:url(#SVGID_00000008829994378720696470000014067151706110774663_);}	.st14{fill:url(#SVGID_00000042723341541863905160000004491278084873940126_);}	.st15{fill:#BCBCBC;}</style><linearGradient id="SVGID_1_" gradientUnits="userSpaceOnUse" x1="0" y1="759.42" x2="349.99" y2="759.42" gradientTransform="matrix(1 0 0 1 0 -740.1)">	<stop offset="0" style="stop-color:#9000FE"></stop>	<stop offset="1" style="stop-color:#00EEBE"></stop></linearGradient><path class="st0" d="M15,32.5h1c3.4,0.1,6.1-3.5,6.1-3.5l0-0.1l0-0.1l1.4-1.4c-0.3-2.1-0.3-4.3,0.1-6.4h-0.2c-0.1,0-0.3,0-0.4,0 l-4,4c0,0.2,0,0.3,0,0.5c0,1.2-1,2.1-2.2,2.1c-1.2,0-2.1-1-2.1-2.2s1-2.1,2.2-2.1c0,0,0,0,0,0l0,0c0.2,0,0.3,0,0.5,0.1l3.9-3.9 c-0.1-0.2-0.1-0.4-0.1-0.6c0-1.2,1-2.1,2.1-2.1c0.6,0,1.1,0.2,1.5,0.6c0,0,0-0.1,0.1-0.1c3.1-5.6,1-12.7-4.6-15.8 c-1.1-0.6-2.2-1-3.4-1.2c-0.6-0.1-1.2-0.2-1.8-0.2h-0.9c-0.8,0.1-1.6,0.2-2.3,0.4C9,1.1,6.3,3.1,4.7,5.8c-2,3.5-3.4,7.3-4,11.2 c-0.2,1.2-0.3,2.4-0.5,3.6l3-3c-0.3-1.1,0.3-2.3,1.5-2.6c0,0,0,0,0,0C5,15,5.2,15,5.4,15c1.2,0.1,2.1,1.1,2,2.3 c-0.1,1.1-0.9,1.9-2,2c-0.2,0-0.3,0-0.4,0L0,24.1v1.1c0,0.2,0.1,0.4,0.1,0.6c0,1.6,0.2,3.1,0.4,4.6l12.3-12.1 c-0.1-0.2-0.1-0.4-0.1-0.6c0-1.2,1-2.2,2.1-2.2s2.1,1,2.2,2.1c0,1.2-1,2.2-2.2,2.2h0l0,0c-0.2,0-0.3,0-0.4,0L0.9,33.1 c0.3,1.9,0.8,3.7,1.3,5.5l1.3-1.3C8.6,32.2,11.4,32.3,15,32.5z"></path><linearGradient id="SVGID_00000182515115453535265420000012838000713131118777_" gradientUnits="userSpaceOnUse" x1="1.000000e-02" y1="787.705" x2="350" y2="787.705" gradientTransform="matrix(1 0 0 1 0 -740.1)">	<stop offset="0" style="stop-color:#9000FE"></stop>	<stop offset="1" style="stop-color:#00EEBE"></stop></linearGradient><path style="fill:url(#SVGID_00000182515115453535265420000012838000713131118777_);" d="M27.3,50.8v-0.1c0-0.1,0-6,0-11.3v-1l0,0 c-1.4-2.6-2.5-5.3-3.2-8.1l-0.2,0.2c-0.5,0.6-3.6,4.5-8,4.4h-1.1c-3.4-0.2-5.4-0.3-9.8,4.2L3,41c0.7,1.8,1.4,3.5,2.2,5.2l4.7-4.7 c-0.1-0.2-0.1-0.5-0.1-0.8c0-1.2,0.9-2.2,2.1-2.2c1.2,0,2.2,0.9,2.2,2.1s-0.9,2.2-2.1,2.2c0,0,0,0,0,0h-0.3l-5.5,5.4 c0.7,1.4,1.5,2.8,2.4,4.2L19.2,42c-0.1-0.2-0.1-0.4-0.1-0.6c0-1.2,1-2.2,2.1-2.2c1.2,0,2.2,1,2.2,2.1s-1,2.2-2.1,2.2c0,0,0,0,0,0 l0,0c-0.1,0-0.3,0-0.4,0L9.9,54.4c1,1.4,2.1,2.8,3.2,4.1l7-6.9c0-0.2-0.1-0.4-0.1-0.5c0-1.2,1-2.2,2.1-2.2c1.2,0,2.2,1,2.2,2.1 s-1,2.2-2.1,2.2c0,0,0,0,0,0l0,0c-0.1,0-0.3,0-0.4,0l-7.1,7l0.6,0.6c1.7,1.7,3.6,3.1,5.8,4.3v-0.3c0-2.1,0.6-4.2,2-5.9l0,0 c0,0,1.9-1.9,3.4-3.6C27.4,54.1,27.4,51.6,27.3,50.8z"></path><linearGradient id="SVGID_00000140014431302175858750000000481272321929078406_" gradientUnits="userSpaceOnUse" x1="1.000000e-02" y1="765.655" x2="350" y2="765.655" gradientTransform="matrix(1 0 0 1 0 -740.1)">	<stop offset="0" style="stop-color:#9000FE"></stop>	<stop offset="1" style="stop-color:#00EEBE"></stop></linearGradient><path style="fill:url(#SVGID_00000140014431302175858750000000481272321929078406_);" d="M17,25.5C17,25.6,17,25.6,17,25.5l0.1,0.1 L17,25.5C17,25.5,17,25.5,17,25.5z"></path><linearGradient id="SVGID_00000093855833618700551270000003620214872566438026_" gradientUnits="userSpaceOnUse" x1="1.000000e-02" y1="778.215" x2="350" y2="778.215" gradientTransform="matrix(1 0 0 1 0 -740.1)">	<stop offset="0" style="stop-color:#9000FE"></stop>	<stop offset="1" style="stop-color:#00EEBE"></stop></linearGradient><path style="fill:url(#SVGID_00000093855833618700551270000003620214872566438026_);" d="M35,38.2L35,38.2l-0.1-0.1 C34.9,38.1,34.9,38.1,35,38.2L35,38.2z"></path><linearGradient id="SVGID_00000016785976919569515860000003344393445449819265_" gradientUnits="userSpaceOnUse" x1="1.000000e-02" y1="773.9217" x2="350" y2="773.9217" gradientTransform="matrix(1 0 0 1 0 -740.1)">	<stop offset="0" style="stop-color:#9000FE"></stop>	<stop offset="1" style="stop-color:#00EEBE"></stop></linearGradient><path style="fill:url(#SVGID_00000016785976919569515860000003344393445449819265_);" d="M98.8,5.7C96.6,2,92.6-0.1,88.3,0.3 c-5.6,0.3-10.2,4.5-10.9,10.1c-0.4,2.4,0.1,4.8,1.2,6.9c0.9,1.7,1.3,3.5,1.3,5.4c0,4.3-0.9,8.6-2.7,12.5c-0.8,1.7-1.7,3.4-2.6,5 c-0.1,0.2-0.2,0.3-0.3,0.5c-0.1-0.2-0.2-0.4-0.3-0.5c-1.6-3.2-3.3-6.3-5.2-9.3c-1.9-3.1-4.4-5.7-7.4-7.8c-3.1-2.1-6.9-3.2-10.7-3 c-4,0.2-7.7,1.7-10.8,4.3c-0.6,0.5-1.3,1.1-1.8,1.7c0.5,1.1,0,2.3-1.1,2.8c-0.3,0.1-0.6,0.2-0.8,0.2c-0.2,0-0.4,0-0.6-0.1 c-0.3,0.5-0.7,0.9-1,1.4c-1.9,2.9-3.6,5.8-5.1,8.9l0,0v11.5c0,0.6,0.2,4.1-1.5,6c-1.5,1.6-3.3,3.4-3.5,3.6c-0.9,1.3-1.4,2.8-1.4,4.4 V66c0.5,0.2,1.1,0.4,1.7,0.6c5.4,1.7,11.4,0.5,15.7-3.2c2.5-2,4.6-4.5,6.2-7.3c1.5-2.6,2.9-5.3,4.4-7.9l0.3-0.6l0.3,0.6 c1.5,3.1,3.2,6.1,5.1,9.1c1.8,2.9,4.1,5.3,6.9,7.2c2.4,1.6,5.2,2.6,8.2,2.8c0.1,0,0.3,0.1,0.4,0.1h1.5c0.7-0.1,1.4-0.2,2.1-0.3 c3-0.5,5.8-1.7,8.3-3.4c3.6-2.5,6.6-5.6,9-9.3c4.6-6.7,7.7-14.3,9.2-22.3c0.4-2.3,0.7-4.7,0.8-7c0-0.3,0.1-0.5,0.1-0.8v-2.2 c-0.1-0.9-0.1-1.7-0.2-2.6C102.8,14.7,101.3,10,98.8,5.7z M35,36c0.2,0,0.3,0,0.5,0l3.9-3.9c-0.1-0.2-0.1-0.4-0.1-0.6 c0-1.2,1-2.1,2.2-2.2c1.2,0,2.1,1,2.1,2.1s-1,2.2-2.1,2.2l0,0c-0.1,0-0.3,0-0.4,0l-4,4c0,0.2,0.1,0.3,0.1,0.5c0,1.2-1.1,2.1-2.2,2.1 s-2.1-1.1-2.1-2.2C32.9,36.8,33.8,35.9,35,36L35,36L35,36z M35,46c0.2,0,0.5,0,0.7,0.1l7.9-7.8c-0.4-1.1,0.1-2.4,1.2-2.8 c1.1-0.4,2.4,0.1,2.8,1.2c0.4,1.1-0.1,2.4-1.2,2.8c0,0,0,0,0,0c-0.2,0.1-0.5,0.1-0.8,0.1h-0.2l-8.2,8.2c0,0.1,0,0.2,0,0.3 c0,1.2-1,2.1-2.2,2.1c-1.2,0-2.1-1-2.1-2.2C32.8,47,33.7,46,35,46L35,46L35,46z M48.3,47.2c-0.1,0-0.3,0-0.4,0L31.5,63.3 c0.1,0.2,0.1,0.4,0.1,0.5c0,1.2-1,2.2-2.1,2.2s-2.2-1-2.2-2.1s1-2.2,2.1-2.2c0,0,0,0,0,0l0,0c0.2,0,0.3,0,0.5,0l16.3-16.2 c-0.1-0.2-0.1-0.4-0.1-0.6c0-1.2,1-2.2,2.1-2.2c1.2,0,2.2,1,2.2,2.1C50.4,46.2,49.5,47.2,48.3,47.2C48.3,47.2,48.3,47.2,48.3,47.2 L48.3,47.2L48.3,47.2z"></path><linearGradient id="SVGID_00000036249559640223666180000007615191191453023387_" gradientUnits="userSpaceOnUse" x1="1.000000e-02" y1="803.955" x2="350" y2="803.955" gradientTransform="matrix(1 0 0 1 0 -740.1)">	<stop offset="0" style="stop-color:#9000FE"></stop>	<stop offset="1" style="stop-color:#00EEBE"></stop></linearGradient><path style="fill:url(#SVGID_00000036249559640223666180000007615191191453023387_);" d="M29.5,63.8C29.4,63.8,29.4,63.8,29.5,63.8 c-0.1,0.1,0,0.1,0,0.2C29.5,63.9,29.5,63.9,29.5,63.8C29.5,63.8,29.5,63.8,29.5,63.8z"></path><linearGradient id="SVGID_00000017485115324280586920000005023571441214536589_" gradientUnits="userSpaceOnUse" x1="1.000000e-02" y1="773.8469" x2="350" y2="773.8469" gradientTransform="matrix(1 0 0 1 0 -740.1)">	<stop offset="0" style="stop-color:#9000FE"></stop>	<stop offset="1" style="stop-color:#00EEBE"></stop></linearGradient><path style="fill:url(#SVGID_00000017485115324280586920000005023571441214536589_);" d="M174.8,7.1c-4.2,0-4.8,3.6-5.6,7.1l-6.7,30 l-7.6-28.1c-1.4-4.9-2-8.9-7.6-9.1s-6.5,4.2-7.8,9.1L132,44.2l-6.8-30c-1.1-3.9-1.1-7-5.6-7.1c-5.1,0.2-5.6,4.9-4.1,9.3l8.6,34.7 c1.1,6.2,4.2,12,11.2,8c2.6-2.3,2.3-3.9,3.6-7.8l8.4-30.9l8.3,30.8c1.3,4,1,5.4,3.6,7.8c1.8,1.6,6.1,1.6,7.7,0 c2.5-2.4,2.3-4.1,3.4-8l8.6-34.7C180.4,11.8,179.9,7.3,174.8,7.1z"></path><linearGradient id="SVGID_00000119094530646884203080000008323920110013142452_" gradientUnits="userSpaceOnUse" x1="1.000000e-02" y1="780.5587" x2="350" y2="780.5587" gradientTransform="matrix(1 0 0 1 0 -740.1)">	<stop offset="0" style="stop-color:#9000FE"></stop>	<stop offset="1" style="stop-color:#00EEBE"></stop></linearGradient><path style="fill:url(#SVGID_00000119094530646884203080000008323920110013142452_);" d="M185.6,54.2c4.7,4.6,11.4,6.6,17.9,5.3 c4.4-0.8,11.9-4.2,9-9.6c-3.9-5.7-7.8,2-13.1,1.2c-4.3,0.1-8.2-2.6-9.6-6.7c2.2-0.5,27,1.2,28-1.2c3.4-4.8-1-13-4.7-16.6 C194.3,9.3,168,35.5,185.6,54.2z M189.5,37.1c2.4-9.5,18-9.6,20.4,0H189.5z"></path><linearGradient id="SVGID_00000176031165544067469350000014519469060367149963_" gradientUnits="userSpaceOnUse" x1="1.000000e-02" y1="773.5187" x2="350" y2="773.5187" gradientTransform="matrix(1 0 0 1 0 -740.1)">	<stop offset="0" style="stop-color:#9000FE"></stop>	<stop offset="1" style="stop-color:#00EEBE"></stop></linearGradient><path style="fill:url(#SVGID_00000176031165544067469350000014519469060367149963_);" d="M230.5,24.3c-0.4-2.5,1.1-14.2-1.2-16 c-2.6-2.9-7.8-0.6-7.6,3.3v29c-0.3,17,21.3,26,33.1,13.7c7.5-7.2,7.5-20.3,0-27.4C248.3,20.3,238.2,19.3,230.5,24.3z M250.8,44.6 c-5.7,12.8-24.6,4.7-19.4-8.2C237.2,23.7,255.9,31.6,250.8,44.6L250.8,44.6z"></path><linearGradient id="SVGID_00000127007963292729250070000004955091820351506344_" gradientUnits="userSpaceOnUse" x1="1.000000e-02" y1="752.6793" x2="350" y2="752.6793" gradientTransform="matrix(1 0 0 1 0 -740.1)">	<stop offset="0" style="stop-color:#9000FE"></stop>	<stop offset="1" style="stop-color:#00EEBE"></stop></linearGradient><path style="fill:url(#SVGID_00000127007963292729250070000004955091820351506344_);" d="M264.8,16c4.5,4.5,11.4-2.4,6.9-6.8 S260.3,11.5,264.8,16z"></path><linearGradient id="SVGID_00000013904141050389497260000012346387699026993071_" gradientUnits="userSpaceOnUse" x1="1.000000e-02" y1="780.5477" x2="350" y2="780.5477" gradientTransform="matrix(1 0 0 1 0 -740.1)">	<stop offset="0" style="stop-color:#9000FE"></stop>	<stop offset="1" style="stop-color:#00EEBE"></stop></linearGradient><path style="fill:url(#SVGID_00000013904141050389497260000012346387699026993071_);" d="M271.4,22.9c-2.5-2.8-7.7-0.7-7.6,3.1v29 c0,5.7,8.8,5.8,8.8,0C272.1,53.2,273.9,23.3,271.4,22.9z"></path><linearGradient id="SVGID_00000051385355062229453680000016035989374142291120_" gradientUnits="userSpaceOnUse" x1="1.000000e-02" y1="773.3049" x2="350" y2="773.3049" gradientTransform="matrix(1 0 0 1 0 -740.1)">	<stop offset="0" style="stop-color:#9000FE"></stop>	<stop offset="1" style="stop-color:#00EEBE"></stop></linearGradient><path style="fill:url(#SVGID_00000051385355062229453680000016035989374142291120_);" d="M287.1,46.3V11.4c-0.1-5.7-8.9-5.9-8.8,0 c0.4,3.6-1.1,38,1.1,40.4c3.2,9.1,21.4,10.8,15.5,0.1C292.3,49.3,287.2,51.9,287.1,46.3z"></path><linearGradient id="SVGID_00000070810282043781048600000000425384435475334277_" gradientUnits="userSpaceOnUse" x1="1.000000e-02" y1="752.6793" x2="350" y2="752.6793" gradientTransform="matrix(1 0 0 1 0 -740.1)">	<stop offset="0" style="stop-color:#9000FE"></stop>	<stop offset="1" style="stop-color:#00EEBE"></stop></linearGradient><path style="fill:url(#SVGID_00000070810282043781048600000000425384435475334277_);" d="M300,16c4.5,4.5,11.4-2.4,6.9-6.8 S295.6,11.5,300,16z"></path><linearGradient id="SVGID_00000142895438456460846170000012844087151440715933_" gradientUnits="userSpaceOnUse" x1="1.000000e-02" y1="780.5477" x2="350" y2="780.5477" gradientTransform="matrix(1 0 0 1 0 -740.1)">	<stop offset="0" style="stop-color:#9000FE"></stop>	<stop offset="1" style="stop-color:#00EEBE"></stop></linearGradient><path style="fill:url(#SVGID_00000142895438456460846170000012844087151440715933_);" d="M306.6,22.9c-2.5-2.8-7.7-0.7-7.6,3.1v29 c0,5.7,8.8,5.8,8.8,0C307.4,53.2,309.1,23.3,306.6,22.9z"></path><linearGradient id="SVGID_00000034080095704028145660000014247388533726289043_" gradientUnits="userSpaceOnUse" x1="1.000000e-02" y1="780.6989" x2="350" y2="780.6989" gradientTransform="matrix(1 0 0 1 0 -740.1)">	<stop offset="0" style="stop-color:#9000FE"></stop>	<stop offset="1" style="stop-color:#00EEBE"></stop></linearGradient><path style="fill:url(#SVGID_00000034080095704028145660000014247388533726289043_);" d="M350,40.5c0-2.6-0.5-5.1-1.5-7.5 c-6.5-15.7-29.2-15.6-35.8,0c-7.7,17.1,13.4,35,28.6,23.1c0.8,4.1,6.9,4.3,8.3,0.5C350.3,56.2,349.9,41.5,350,40.5z M340.3,44.6 c-5.7,12.8-24.6,4.7-19.4-8.2C326.7,23.7,345.4,31.6,340.3,44.6L340.3,44.6z"></path><g>	<path class="st15" d="M365.4,60.3V22.7h12.2c11.2,0,18.8,7.6,18.8,18.8c0,11.2-7.5,18.8-18.6,18.8H365.4z M370.5,27.3v28.2h7  c8.4,0,13.7-5.4,13.7-14c0-8.7-5.3-14.1-13.9-14.1H370.5z"></path>	<path class="st15" d="M413.7,34.2c7.6,0,13.2,5.5,13.2,13.4s-5.6,13.4-13.2,13.4c-7.6,0-13.3-5.5-13.3-13.4S406.1,34.2,413.7,34.2z   M413.7,56.5c4.9,0,8.3-3.7,8.3-9c0-5.3-3.4-9-8.3-9c-4.9,0-8.3,3.7-8.3,9C405.4,52.8,408.8,56.5,413.7,56.5z"></path>	<path class="st15" d="M443.1,34.1c6.4,0,10.9,3.6,11.8,9.3H450c-0.8-3.2-3.4-4.9-6.7-4.9c-4.6,0-7.8,3.5-7.8,9c0,5.5,3,9,7.6,9  c3.5,0,6.1-1.8,7-4.8h4.9c-1,5.5-5.7,9.2-11.9,9.2c-7.5,0-12.4-5.3-12.4-13.3C430.7,39.6,435.7,34.1,443.1,34.1z"></path>	<path class="st15" d="M462.7,52.9c0,2.6,2,4.2,5.2,4.2c3.4,0,5.4-1.4,5.4-3.7c0-1.7-0.8-2.8-3.5-3.4l-4.5-1  c-4.5-1.1-6.7-3.3-6.7-7.1c0-4.7,4-7.6,9.6-7.6c5.6,0,9.2,3.1,9.3,8h-4.7c-0.1-2.5-1.8-4.2-4.8-4.2c-3.1,0-4.8,1.4-4.8,3.7  c0,1.7,1.2,2.9,3.7,3.5l4.5,1.1c4.3,1,6.4,3,6.4,6.8c0,4.8-4.2,7.9-10.2,7.9c-6,0-9.8-3.2-9.8-8H462.7z"></path></g></svg>